<?xml version="1.0"?>
<svg width="512" height="150" xmlns="http://www.w3.org/2000/svg">

 <g>
  <title>background</title>
  <rect fill="none" id="canvas_background" y="-1" x="-1"/>
 </g>
 <g>
  <title>Layer 1</title>
  <g fill="none" id="svg_1">
   <g stroke="null" id="svg_2">
    <g stroke="null" id="svg_3">
     <g stroke="null" id="svg_4">
      <g stroke="null" id="svg_5">
       <g stroke="null" id="svg_6">
        <g stroke="null" id="svg_7">
         <g stroke="null" id="svg_8">
          <g stroke="null" id="svg_9">
           <g stroke="null" id="svg_10">
            <path fill="#ffffff" stroke="null" id="svg_11" d="m21.255146,100.55706c-0.296368,5.473915 -4.116863,9.71891 -4.116863,9.71891s-3.338058,-4.634956 -3.043915,-10.106636c0.299711,-5.476158 4.119091,-9.717819 4.119091,-9.717819s3.339172,4.631592 3.041687,10.105545z"/>
           </g>
           <g stroke="null" id="svg_12">
            <path fill="#ffffff" stroke="null" id="svg_13" d="m5.139771,105.019287c3.069542,4.541382 8.527868,6.217094 8.527868,6.217094s0.481322,-5.68898 -2.588221,-10.233658c-3.067314,-4.541389 -8.528984,-6.217102 -8.528984,-6.217102s-0.482435,5.687859 2.589336,10.233665z"/>
           </g>
          </g>
          <g stroke="null" id="svg_14">
           <g stroke="null" id="svg_15">
            <path fill="#ffffff" stroke="null" id="svg_16" d="m34.565041,118.031715c2.0835,5.070587 0.459038,10.545631 0.459038,10.545631s-5.0082,-2.749763 -7.091702,-7.822594c-2.081272,-5.071716 -0.45458,-10.54451 -0.45458,-10.54451s5.00263,2.752007 7.087244,7.821472z"/>
           </g>
           <g stroke="null" id="svg_17">
            <path fill="#ffffff" stroke="null" id="svg_18" d="m21.928106,128.985138c4.724087,2.779846 10.371824,1.950912 10.371824,1.950912s-2.008852,-5.345802 -6.729597,-8.130104c-4.725203,-2.784309 -10.375164,-1.950928 -10.375164,-1.950928s2.007736,5.345802 6.732937,8.130119z"/>
           </g>
          </g>
          <g stroke="null" id="svg_19">
           <g stroke="null" id="svg_20">
            <path fill="#ffffff" stroke="null" id="svg_21" d="m52.892044,130.742172c3.81493,3.940811 4.327446,9.625336 4.327446,9.625336s-5.666676,-0.699722 -9.479374,-4.640533c-3.810467,-3.940811 -4.325211,-9.627548 -4.325211,-9.627548s5.668903,0.701935 9.477139,4.642746z"/>
           </g>
           <g stroke="null" id="svg_22">
            <path fill="#ffffff" stroke="null" id="svg_23" d="m45.205379,145.595184c5.417099,0.836746 10.357338,-2.025558 10.357338,-2.025558s-3.843891,-4.222717 -9.263222,-5.061676c-5.415985,-0.838989 -10.357338,2.024429 -10.357338,2.024429s3.843887,4.221634 9.263222,5.062805z"/>
           </g>
          </g>
          <g stroke="null" id="svg_24">
           <path fill="#ffffff" stroke="null" id="svg_25" d="m10.980257,79.888039c1.299125,5.325737 -1.126427,10.494385 -1.126427,10.494385s-4.538021,-3.469543 -5.839372,-8.794159c-1.301354,-5.326866 1.124197,-10.494392 1.124197,-10.494392s4.54025,3.469543 5.841601,8.794167z"/>
          </g>
         </g>
        </g>
       </g>
      </g>
     </g>
     <g stroke="null" id="svg_26">
      <g stroke="null" id="svg_27">
       <g stroke="null" id="svg_28">
        <g stroke="null" id="svg_29">
         <g stroke="null" id="svg_30">
          <g stroke="null" id="svg_31">
           <g stroke="null" id="svg_32">
            <path fill="#ffffff" stroke="null" id="svg_33" d="m129.074631,100.55706c0.295258,5.473915 4.115753,9.71891 4.115753,9.71891s3.338058,-4.634956 3.043915,-10.106636c-0.298584,-5.476158 -4.11908,-9.717819 -4.11908,-9.717819s-3.338058,4.631592 -3.040588,10.105545z"/>
           </g>
           <g stroke="null" id="svg_34">
            <path fill="#ffffff" stroke="null" id="svg_35" d="m145.188919,105.019287c-3.069565,4.541382 -8.527878,6.217094 -8.527878,6.217094s-0.481339,-5.68898 2.588211,-10.233658c3.069534,-4.541389 8.528976,-6.217102 8.528976,-6.217102s0.482437,5.687859 -2.58931,10.233665z"/>
           </g>
          </g>
          <g stroke="null" id="svg_36">
           <g stroke="null" id="svg_37">
            <path fill="#ffffff" stroke="null" id="svg_38" d="m115.763634,118.031715c-2.083504,5.070587 -0.457924,10.545631 -0.457924,10.545631s5.005966,-2.749763 7.091698,-7.822594c2.080154,-5.071716 0.453468,-10.54451 0.453468,-10.54451s-5.002632,2.752007 -7.087242,7.821472z"/>
           </g>
           <g stroke="null" id="svg_39">
            <path fill="#ffffff" stroke="null" id="svg_40" d="m128.400574,128.985138c-4.724098,2.779846 -10.371826,1.950912 -10.371826,1.950912s2.008842,-5.345802 6.729584,-8.130104c4.725204,-2.784309 10.375168,-1.950928 10.375168,-1.950928s-2.007736,5.345802 -6.732925,8.130119z"/>
           </g>
          </g>
          <g stroke="null" id="svg_41">
           <g stroke="null" id="svg_42">
            <path fill="#ffffff" stroke="null" id="svg_43" d="m97.436623,130.742172c-3.814919,3.940811 -4.327438,9.625336 -4.327438,9.625336s5.666672,-0.699722 9.47937,-4.640533c3.810463,-3.940811 4.325211,-9.627548 4.325211,-9.627548s-5.666672,0.701935 -9.477142,4.642746z"/>
           </g>
           <g stroke="null" id="svg_44">
            <path fill="#ffffff" stroke="null" id="svg_45" d="m105.122177,145.595184c-5.417107,0.836746 -10.356224,-2.025558 -10.356224,-2.025558s3.842781,-4.222717 9.262108,-5.061676c5.415993,-0.838989 10.358452,2.024429 10.358452,2.024429s-3.843887,4.221634 -9.264336,5.062805z"/>
           </g>
          </g>
          <g stroke="null" id="svg_46">
           <path fill="#ffffff" stroke="null" id="svg_47" d="m139.349518,79.888039c-1.299118,5.325737 1.12532,10.494385 1.12532,10.494385s4.538025,-3.469543 5.841614,-8.794159c1.300217,-5.326866 -1.125336,-10.494392 -1.125336,-10.494392s-4.540237,3.469543 -5.841599,8.794167z"/>
          </g>
         </g>
        </g>
       </g>
      </g>
     </g>
    </g>
    <g stroke="null" id="svg_48">
     <path fill="#ffffff" stroke="null" id="svg_49" d="m75.16433,135.920853l-0.677406,-0.373245c-2.328613,-1.28241 -57.016617,-32.098183 -57.016617,-92.55423l0,-40.102386l115.386948,0l0,40.102386c0,60.456047 -54.687996,91.27182 -57.016617,92.55423l-0.676308,0.373245zm-54.886311,-130.223249l0,37.295774c0,55.965935 48.254765,85.868088 54.886311,89.71199c6.631554,-3.842789 54.886314,-33.746056 54.886314,-89.71199l0,-37.295774l-109.772625,0z"/>
    </g>
    <g stroke="null" id="svg_50">
     <g stroke="null" id="svg_51">
      <g stroke="null" id="svg_52">
       <path fill="#ffffff" stroke="null" id="svg_53" d="m75.16433,124.385841l-0.320877,-0.176033c-1.934196,-1.066261 -47.374571,-26.678841 -47.374571,-76.885651l0,-32.998424l95.390913,0l0,32.998424c0,50.21347 -45.440369,75.82048 -47.375694,76.885651l-0.319771,0.176033zm-46.367355,-108.731997l0,31.670313c0,47.816925 41.903992,72.998291 46.367355,75.541969c4.462265,-2.543678 46.367371,-27.719467 46.367371,-75.541969l0,-31.670313l-92.734726,0z"/>
       <path fill="#ffffff" stroke="null" id="svg_54" d="m75.16433,125.18692l-0.659584,-0.363205c-1.949799,-1.074081 -47.737791,-26.886086 -47.737791,-77.500683l0,-33.70032l96.79476,0l0,33.70032c0,50.625744 -45.789101,76.426601 -47.738907,77.500683l-0.658478,0.363205zm-45.665428,-108.831142l0,30.96838c0,46.328392 39.572029,71.18219 45.665428,74.731941c6.093414,-3.549751 45.665443,-28.400215 45.665443,-74.731941l0,-30.96838l-91.330872,0z"/>
      </g>
     </g>
     <g stroke="null" id="svg_55">
      <g stroke="null" id="svg_56">
       <path fill="#ffffff" stroke="null" id="svg_57" d="m37.664665,36.144562l4.735226,0l0,-5.199829l1.73365,0l0,5.199829l4.712952,0l0,1.648987l-4.712952,0l0,5.199829l-1.73365,0l0,-5.199829l-4.735226,0l0,-1.648987z"/>
      </g>
      <g stroke="null" id="svg_58">
       <path fill="#ffffff" stroke="null" id="svg_59" d="m49.405804,42.015148l4.735229,0l0,-5.199833l1.73365,0l0,5.199833l4.712948,0l0,1.648983l-4.712948,0l0,5.199833l-1.73365,0l0,-5.199833l-4.735229,0l0,-1.648983z"/>
      </g>
      <g stroke="null" id="svg_60">
       <path fill="#ffffff" stroke="null" id="svg_61" d="m54.912041,55.93335l4.735229,0l0,-5.199833l1.732533,0l0,5.199833l4.714062,0l0,1.648983l-4.714062,0l0,5.199833l-1.732533,0l0,-5.199833l-4.735229,0l0,-1.648983z"/>
      </g>
      <g stroke="null" id="svg_62">
       <path fill="#ffffff" stroke="null" id="svg_63" d="m40.37656,53.153496l4.734116,0l0,-5.199829l1.73365,0l0,5.199829l4.714058,0l0,1.648987l-4.714058,0l0,5.199829l-1.73365,0l0,-5.199829l-4.734116,0l0,-1.648987z"/>
      </g>
      <g stroke="null" id="svg_64">
       <path fill="#ffffff" stroke="null" id="svg_65" d="m55.430126,29.881804l4.735233,0l0,-5.199831l1.732533,0l0,5.199831l4.714062,0l0,1.648985l-4.714062,0l0,5.199829l-1.732533,0l0,-5.199829l-4.735233,0l0,-1.648985z"/>
      </g>
     </g>
     <g stroke="null" id="svg_66">
      <polygon fill="#ffffff" stroke="null" id="svg_67" points="75.8663 133.921 75.1643 134.319 74.4624 133.921 74.4624 4.29261 75.8663 4.29261"/>
      <polygon fill="#ffffff" stroke="null" id="svg_68" points="75.1643 135.125 73.7605 134.33 73.7605 3.5918 76.5682 3.5918 76.5682 134.33"/>
     </g>
    </g>
   </g>
   <g stroke="null" id="svg_69">
    <g stroke="null" id="svg_70">
     <path fill="#ffffff" stroke="null" id="svg_71" d="m194.683746,62.406715l0,3.492935c0,3.492905 4.500137,5.575317 9.470459,5.575317c5.440491,0 9.40361,-2.552589 9.40361,-7.254387c0,-5.507347 -5.575317,-7.321209 -11.419159,-9.605278c-6.247162,-2.350887 -12.628021,-5.037167 -12.628021,-13.434662c0,-8.933434 7.187531,-12.762856 15.180588,-12.762856c7.120682,0 14.373932,2.687403 14.373932,7.859386l0,5.57531l-6.246033,0l0,-3.291275c0,-2.754215 -4.231628,-4.231628 -8.127899,-4.231628c-4.634933,0 -8.329544,2.149258 -8.329544,6.515701c0,5.037167 4.768646,6.717331 10.075455,8.731735c6.985855,2.619431 13.903748,5.306801 13.903748,14.106537c0,9.068249 -7.389191,13.770054 -16.18779,13.770054c-7.389191,0 -15.650772,-3.291275 -15.650772,-10.075447l0,-4.970322l6.181427,0l0,-0.001122z"/>
     <path fill="#ffffff" stroke="null" id="svg_72" d="m227.325623,71.40696l5.91069,0l0,-37.010532l-5.91069,0l0,-5.171982l34.32428,0l0,11.015808l-5.843842,0l0,-5.507343l-15.852417,0l0,15.247433l16.792786,0l0,5.507343l-16.792786,0l0,15.650764l16.994446,0l0,-5.710129l5.843842,0l0,11.217468l-35.466309,0l0,-5.238831z"/>
     <path fill="#ffffff" stroke="null" id="svg_73" d="m269.772217,71.40696l5.911774,0l0,-37.010532l-5.911774,0l0,-5.171982l17.801147,0l0,5.171982l-5.173126,0l0,14.912075l6.112335,0l10.343964,-14.912075l-4.365326,0l0,-5.171982l16.053009,0l0,5.171982l-4.568085,0l-12.291565,17.129265l0,0.134819c0,0 1.343689,0.60387 2.686279,3.156456l8.53009,14.844105c0.739807,1.276833 1.680176,1.745888 3.359222,1.745888l2.216095,0l0,5.239952l-4.768646,0c-3.963165,0 -5.104034,-0.940353 -6.58255,-3.559784l-9.135101,-16.389454c-0.805542,-1.343681 -1.74588,-1.880707 -3.693451,-1.880707l-3.896271,0l0,16.591114l5.843842,0l0,5.239952l-18.471863,0l0,-5.241074z"/>
     <path fill="#ffffff" stroke="null" id="svg_74" d="m338.687073,28.417786c13.703186,0 24.382507,10.545631 24.382507,24.181992c0,13.971687 -10.679321,24.853798 -24.382507,24.853798c-13.770081,0 -24.383667,-10.882111 -24.383667,-24.853798c0.000031,-13.635239 10.612518,-24.181992 24.383667,-24.181992zm0,43.057144c9.605255,0 17.396637,-8.19474 17.396637,-18.875187c0,-10.343964 -7.791382,-18.270164 -17.396637,-18.270164c-9.673248,0 -17.464661,7.926201 -17.464661,18.270164c0.000031,10.680481 7.791412,18.875187 17.464661,18.875187z"/>
     <path fill="#ffffff" stroke="null" id="svg_75" d="m369.447113,71.40696l5.910675,0l0,-36.674049l-5.910675,0l0,-5.508465l18.60556,0l0,5.508465l-5.977539,0l0,36.406662l16.523163,0l0,-7.657684l5.911774,0l0,13.165024l-35.062958,0l0,-5.239952z"/>
     <path fill="#ffffff" stroke="null" id="svg_76" d="m407.12616,71.40696l4.568115,0l15.11261,-42.182514l7.589752,0l15.11261,42.182514l4.568115,0l0,5.239952l-16.457458,0l0,-5.239952l5.038269,0l-3.69455,-10.545628l-16.791687,0l-3.694611,10.545628l5.105133,0l0,5.239952l-16.457428,0l0,-5.239952l0.001129,0zm30.159515,-15.919273l-5.776978,-16.456303c-0.672974,-1.948711 -0.806671,-3.627754 -0.806671,-3.627754l-0.20166,0c0,0 -0.202789,1.679043 -0.806671,3.627754l-5.843811,16.456303l13.435791,0z"/>
     <path fill="#ffffff" stroke="null" id="svg_77" d="m458.373596,71.40696l5.911774,0l0,-37.010532l-5.911774,0l0,-5.171982l18.60556,0l0,5.171982l-5.977539,0l0,15.784458l24.584167,0l0,-15.784458l-5.978638,0l0,-5.171982l18.606689,0l0,5.171982l-5.911804,0l0,37.010532l5.911804,0l0,5.239952l-18.606689,0l0,-5.239952l5.978638,0l0,-15.716488l-24.584167,0l0,15.717609l5.977539,0l0,5.239952l-18.60556,0l0,-5.241074z"/>
    </g>
    <g stroke="null" id="svg_78">
     <path fill="#ffffff" stroke="null" id="svg_79" d="m188.981415,113.982811l0,1.44841c0,1.448441 1.866241,2.310799 3.926346,2.310799c2.255081,0 3.898468,-1.057358 3.898468,-3.007156c0,-2.284035 -2.31189,-3.036087 -4.7341,-3.982018c-2.58934,-0.974899 -5.235504,-2.087982 -5.235504,-5.569771c0,-3.702393 2.979294,-5.29007 6.292847,-5.29007c2.951431,0 5.959702,1.113045 5.959702,3.257851l0,2.31076l-2.589325,0l0,-1.36483c0,-1.14093 -1.754822,-1.753716 -3.369263,-1.753716c-1.921951,0 -3.45282,0.891327 -3.45282,2.701851c0,2.087952 1.976547,2.784309 4.177032,3.619942c2.896851,1.086319 5.764725,2.200493 5.764725,5.847183c0,3.76033 -3.063965,5.709007 -6.710663,5.709007c-3.063965,0 -6.488922,-1.364861 -6.488922,-4.177017l0,-2.061226l2.561478,0z"/>
     <path fill="#ffffff" stroke="null" id="svg_80" d="m202.519714,117.714172l2.450058,0l0,-15.343254l-2.450058,0l0,-2.144768l14.230194,0l0,4.566994l-2.423325,0l0,-2.282951l-6.571396,0l0,6.320702l6.962479,0l0,2.284035l-6.962479,0l0,6.487816l7.046036,0l0,-2.366493l2.422195,0l0,4.650566l-14.703705,0l0,-2.172646z"/>
     <path fill="#ffffff" stroke="null" id="svg_81" d="m220.123627,117.714172l2.450073,0l0,-15.343254l-2.450073,0l0,-2.144768l5.207626,0l9.663223,14.089813c0.334259,0.557083 0.668503,1.420563 0.668503,1.420563l0.083557,0c0,0 -0.139267,-0.974899 -0.139267,-1.587715l0,-11.779015l-2.506882,0l0,-2.144768l7.770233,0l0,2.144768l-2.47905,0l0,17.5159l-2.728592,0l-9.663208,-14.089806c-0.362106,-0.557091 -0.668518,-1.420563 -0.668518,-1.420563l-0.083557,0c0,0 0.139282,0.974899 0.111435,1.587677l0,11.752289l2.533615,0l0,2.171524l-7.769119,0l0,-2.172646z"/>
     <path fill="#ffffff" stroke="null" id="svg_82" d="m243.464401,117.714172l2.450058,0l0,-15.343254l-2.450058,0l0,-2.144768l7.713409,0l0,2.144768l-2.479034,0l0,15.343254l2.479034,0l0,2.171524l-7.713409,0l0,-2.171524z"/>
     <path fill="#ffffff" stroke="null" id="svg_83" d="m263.879364,99.891884c5.681152,0 10.108856,4.372017 10.108856,10.024208c0,5.792587 -4.428833,10.303841 -10.108856,10.303841c-5.709045,0 -10.108887,-4.511253 -10.108887,-10.303841c0,-5.652191 4.40097,-10.024208 10.108887,-10.024208zm0,17.850136c3.982025,0 7.213135,-3.397125 7.213135,-7.824837c0,-4.288445 -3.22998,-7.574142 -7.213135,-7.574142c-4.009918,0 -7.241028,3.285698 -7.241028,7.574142c0.001129,4.42775 3.23111,7.824837 7.241028,7.824837z"/>
     <path fill="#ffffff" stroke="null" id="svg_84" d="m276.610992,117.714172l2.451172,0l0,-15.343254l-2.451172,0l0,-2.144768l8.52121,0c1.3927,0 2.5336,0.055695 3.619934,0.417816c2.061218,0.696358 3.424957,2.422188 3.424957,5.095108c0,2.841118 -1.558746,4.873375 -4.064514,5.514008l0,0.055725c0,0 0.500275,0.278542 0.834503,0.919174l2.785431,4.845528c0.305298,0.529236 0.668518,0.640663 1.364868,0.640663l0.583832,0l0,2.171524l-1.670105,0c-1.671295,0 -2.061279,-0.306389 -2.728668,-1.475166l-3.036072,-5.374771c-0.501404,-0.835625 -0.863495,-1.086327 -2.061218,-1.086327l-2.339783,0l0,5.76474l2.42334,0l0,2.171524l-7.658813,0l0,-2.171524l0.001099,0zm9.189667,-8.047653c2.144806,0 3.56424,-1.392715 3.56424,-3.703514c0,-1.531982 -0.612762,-2.58934 -1.83725,-3.090691c-0.639526,-0.250702 -1.475159,-0.361 -2.422211,-0.361l-3.258942,0l0,7.156326l3.954163,0l0,-0.001122z"/>
     <path fill="#ffffff" stroke="null" id="svg_85" d="m303.128296,117.714172l2.451172,0l0,-15.343254l-2.451172,0l0,-2.144768l7.714508,0l0,2.144768l-2.479004,0l0,6.543518l10.191284,0l0,-6.543518l-2.477905,0l0,-2.144768l7.713409,0l0,2.144768l-2.450073,0l0,15.343254l2.450073,0l0,2.171524l-7.713409,0l0,-2.171524l2.477905,0l0,-6.515663l-10.191284,0l0,6.516785l2.479004,0l0,2.171524l-7.714508,0l0,-2.172646z"/>
     <path fill="#ffffff" stroke="null" id="svg_86" d="m326.748718,117.714172l2.451202,0l0,-15.343254l-2.451202,0l0,-2.144768l7.714539,0l0,2.144768l-2.479034,0l0,15.343254l2.479034,0l0,2.171524l-7.714539,0l0,-2.171524z"/>
     <path fill="#ffffff" stroke="null" id="svg_87" d="m347.386536,99.891884c3.45282,0 7.546295,1.391594 7.546295,3.870628l0,2.423347l-2.562622,0l0,-1.448448c0,-1.64341 -2.589325,-2.450066 -4.900116,-2.450066c-4.594849,0 -7.491669,3.118576 -7.491669,7.629868c0,4.539108 2.951416,7.880531 7.574127,7.880531c1.754791,0 5.264435,-0.529236 5.264435,-2.450066l0,-2.58934l-3.842773,0l0,-2.171524l6.404266,0l0,5.512917c0,3.036125 -5.06839,4.121323 -8.019806,4.121323c-6.043274,0 -10.276001,-4.399864 -10.276001,-10.220299s4.177032,-10.108871 10.303864,-10.108871z"/>
     <path fill="#ffffff" stroke="null" id="svg_88" d="m358.529358,117.714172l2.451172,0l0,-15.343254l-2.451172,0l0,-2.144768l7.714508,0l0,2.144768l-2.479004,0l0,6.543518l10.191315,0l0,-6.543518l-2.477905,0l0,-2.144768l7.713379,0l0,2.144768l-2.450043,0l0,15.343254l2.450043,0l0,2.171524l-7.713379,0l0,-2.171524l2.477905,0l0,-6.515663l-10.191315,0l0,6.516785l2.479004,0l0,2.171524l-7.714508,0l0,-2.172646z"/>
     <path fill="#ffffff" stroke="null" id="svg_89" d="m391.675964,113.982811l0,1.44841c0,1.448441 1.866211,2.310799 3.926331,2.310799c2.255096,0 3.898499,-1.057358 3.898499,-3.007156c0,-2.284035 -2.310791,-3.036087 -4.734131,-3.982018c-2.589355,-0.974899 -5.235504,-2.087982 -5.235504,-5.569771c0,-3.702393 2.980438,-5.29007 6.293976,-5.29007c2.951416,0 5.959717,1.113045 5.959717,3.257851l0,2.31076l-2.590485,0l0,-1.36483c0,-1.14093 -1.753693,-1.753716 -3.368134,-1.753716c-1.921936,0 -3.453918,0.891327 -3.453918,2.701851c0,2.087952 1.976532,2.784309 4.177032,3.619942c2.896851,1.086319 5.764709,2.200493 5.764709,5.847183c0,3.76033 -3.062866,5.709007 -6.710632,5.709007c-3.063995,0 -6.488953,-1.364861 -6.488953,-4.177017l0,-2.061226l2.561493,0z"/>
     <path fill="#ffffff" stroke="null" id="svg_90" d="m415.154907,99.891884c2.367615,0 7.491669,0.862389 7.491669,3.898476l0,2.394371l-2.589325,0l0,-1.531982c0,-1.72699 -2.980408,-2.366493 -4.789856,-2.366493c-4.204865,0 -7.296661,3.090698 -7.296661,7.546265c0,4.650558 3.175385,7.962982 7.462708,7.962982c1.3927,0 4.901215,-0.500267 4.901215,-2.310799l0,-1.530861l2.589355,0l0,2.394341c0,2.895767 -4.929077,3.870667 -7.657684,3.870667c-5.904022,0 -10.164612,-4.539139 -10.164612,-10.276031c0,-5.762489 4.372009,-10.050934 10.053192,-10.050934z"/>
     <path fill="#ffffff" stroke="null" id="svg_91" d="m425.935608,117.714172l2.451202,0l0,-15.343254l-2.451202,0l0,-2.144768l7.714539,0l0,2.144768l-2.479034,0l0,6.543518l10.191345,0l0,-6.543518l-2.477936,0l0,-2.144768l7.713409,0l0,2.144768l-2.450073,0l0,15.343254l2.450073,0l0,2.171524l-7.713409,0l0,-2.171524l2.477936,0l0,-6.515663l-10.191345,0l0,6.516785l2.479034,0l0,2.171524l-7.714539,0l0,-2.172646z"/>
     <path fill="#ffffff" stroke="null" id="svg_92" d="m459.331787,99.891884c5.681152,0 10.108887,4.372017 10.108887,10.024208c0,5.792587 -4.428833,10.303841 -10.108887,10.303841c-5.709015,0 -10.108856,-4.511253 -10.108856,-10.303841c0,-5.652191 4.399841,-10.024208 10.108856,-10.024208zm0,17.850136c3.982056,0 7.213135,-3.397125 7.213135,-7.824837c0,-4.288445 -3.22995,-7.574142 -7.213135,-7.574142c-4.009888,0 -7.239868,3.285698 -7.239868,7.574142c-0.000031,4.42775 3.22998,7.824837 7.239868,7.824837z"/>
     <path fill="#ffffff" stroke="null" id="svg_93" d="m482.227997,99.891884c5.681152,0 10.108887,4.372017 10.108887,10.024208c0,5.792587 -4.428833,10.303841 -10.108887,10.303841c-5.709015,0 -10.107758,-4.511253 -10.107758,-10.303841c0,-5.652191 4.398743,-10.024208 10.107758,-10.024208zm0,17.850136c3.982056,0 7.213165,-3.397125 7.213165,-7.824837c0,-4.288445 -3.230011,-7.574142 -7.213165,-7.574142c-4.009888,0 -7.239899,3.285698 -7.239899,7.574142c0.000031,4.42775 3.230011,7.824837 7.239899,7.824837z"/>
     <path fill="#ffffff" stroke="null" id="svg_94" d="m494.987488,117.714172l2.450073,0l0,-15.203979l-2.450073,0l0,-2.284042l7.714539,0l0,2.284042l-2.479034,0l0,15.092552l6.849945,0l0,-3.174271l2.450012,0l0,5.457222l-14.536591,0l0,-2.171524l0.001129,0z"/>
    </g>
   </g>
  </g>
 </g>
</svg>